<mxfile host="app.diagrams.net" modified="2023-03-13T10:08:19.710Z" agent="5.0 (Windows NT 10.0; Win64; x64) AppleWebKit/537.36 (KHTML, like Gecko) Chrome/110.0.0.0 Safari/537.36" etag="ms17k4u4MAnpI2ncCHtP" version="21.0.6" type="github">
  <diagram name="Page-1" id="T8TQywTrJD7ynvql__3W">
    <mxGraphModel dx="1434" dy="756" grid="1" gridSize="10" guides="1" tooltips="1" connect="1" arrows="1" fold="1" page="1" pageScale="1" pageWidth="827" pageHeight="1169" math="0" shadow="0">
      <root>
        <mxCell id="0" />
        <mxCell id="1" parent="0" />
        <mxCell id="c3Qgh0YCJOzbZ4B7h1RX-28" style="edgeStyle=orthogonalEdgeStyle;rounded=0;orthogonalLoop=1;jettySize=auto;html=1;labelBackgroundColor=none;strokeColor=#E07A5F;fontColor=default;" edge="1" parent="1" source="c3Qgh0YCJOzbZ4B7h1RX-1" target="c3Qgh0YCJOzbZ4B7h1RX-2">
          <mxGeometry relative="1" as="geometry" />
        </mxCell>
        <mxCell id="c3Qgh0YCJOzbZ4B7h1RX-1" value="Input: patientNumber" style="rounded=1;whiteSpace=wrap;html=1;labelBackgroundColor=none;fillColor=#F2CC8F;strokeColor=#E07A5F;fontColor=#393C56;" vertex="1" parent="1">
          <mxGeometry x="354" y="60" width="120" height="60" as="geometry" />
        </mxCell>
        <mxCell id="c3Qgh0YCJOzbZ4B7h1RX-29" style="edgeStyle=orthogonalEdgeStyle;rounded=0;orthogonalLoop=1;jettySize=auto;html=1;labelBackgroundColor=none;strokeColor=#E07A5F;fontColor=default;" edge="1" parent="1" source="c3Qgh0YCJOzbZ4B7h1RX-2" target="c3Qgh0YCJOzbZ4B7h1RX-5">
          <mxGeometry relative="1" as="geometry" />
        </mxCell>
        <mxCell id="c3Qgh0YCJOzbZ4B7h1RX-2" value="Create filepath through concatination" style="rounded=1;whiteSpace=wrap;html=1;labelBackgroundColor=none;fillColor=#F2CC8F;strokeColor=#E07A5F;fontColor=#393C56;" vertex="1" parent="1">
          <mxGeometry x="354" y="150" width="120" height="60" as="geometry" />
        </mxCell>
        <mxCell id="c3Qgh0YCJOzbZ4B7h1RX-21" style="edgeStyle=orthogonalEdgeStyle;rounded=0;orthogonalLoop=1;jettySize=auto;html=1;entryX=0.5;entryY=0;entryDx=0;entryDy=0;labelBackgroundColor=none;strokeColor=#E07A5F;fontColor=default;" edge="1" parent="1" source="c3Qgh0YCJOzbZ4B7h1RX-4" target="c3Qgh0YCJOzbZ4B7h1RX-8">
          <mxGeometry relative="1" as="geometry">
            <Array as="points">
              <mxPoint x="414" y="440" />
              <mxPoint x="208" y="440" />
            </Array>
          </mxGeometry>
        </mxCell>
        <mxCell id="c3Qgh0YCJOzbZ4B7h1RX-22" value="No" style="edgeLabel;html=1;align=center;verticalAlign=middle;resizable=0;points=[];labelBackgroundColor=none;fontColor=#393C56;" vertex="1" connectable="0" parent="c3Qgh0YCJOzbZ4B7h1RX-21">
          <mxGeometry x="0.1789" y="-4" relative="1" as="geometry">
            <mxPoint as="offset" />
          </mxGeometry>
        </mxCell>
        <mxCell id="c3Qgh0YCJOzbZ4B7h1RX-26" style="edgeStyle=orthogonalEdgeStyle;rounded=0;orthogonalLoop=1;jettySize=auto;html=1;labelBackgroundColor=none;strokeColor=#E07A5F;fontColor=default;" edge="1" parent="1" source="c3Qgh0YCJOzbZ4B7h1RX-4">
          <mxGeometry relative="1" as="geometry">
            <mxPoint x="280" y="380" as="targetPoint" />
          </mxGeometry>
        </mxCell>
        <mxCell id="c3Qgh0YCJOzbZ4B7h1RX-4" value="last part" style="strokeWidth=2;html=1;shape=mxgraph.flowchart.decision;whiteSpace=wrap;labelBackgroundColor=none;fillColor=#F2CC8F;strokeColor=#E07A5F;fontColor=#393C56;" vertex="1" parent="1">
          <mxGeometry x="364" y="330" width="100" height="100" as="geometry" />
        </mxCell>
        <mxCell id="c3Qgh0YCJOzbZ4B7h1RX-30" style="edgeStyle=orthogonalEdgeStyle;rounded=0;orthogonalLoop=1;jettySize=auto;html=1;labelBackgroundColor=none;strokeColor=#E07A5F;fontColor=default;" edge="1" parent="1" source="c3Qgh0YCJOzbZ4B7h1RX-5" target="c3Qgh0YCJOzbZ4B7h1RX-4">
          <mxGeometry relative="1" as="geometry" />
        </mxCell>
        <mxCell id="c3Qgh0YCJOzbZ4B7h1RX-5" value="For part in patient_Trial" style="rounded=1;whiteSpace=wrap;html=1;labelBackgroundColor=none;fillColor=#F2CC8F;strokeColor=#E07A5F;fontColor=#393C56;" vertex="1" parent="1">
          <mxGeometry x="354" y="240" width="120" height="60" as="geometry" />
        </mxCell>
        <mxCell id="c3Qgh0YCJOzbZ4B7h1RX-9" style="edgeStyle=orthogonalEdgeStyle;rounded=0;orthogonalLoop=1;jettySize=auto;html=1;labelBackgroundColor=none;strokeColor=#E07A5F;fontColor=default;" edge="1" parent="1">
          <mxGeometry relative="1" as="geometry">
            <mxPoint x="316" y="500" as="targetPoint" />
            <mxPoint x="259" y="500" as="sourcePoint" />
          </mxGeometry>
        </mxCell>
        <mxCell id="c3Qgh0YCJOzbZ4B7h1RX-8" value="load part" style="shape=parallelogram;perimeter=parallelogramPerimeter;whiteSpace=wrap;html=1;fixedSize=1;labelBackgroundColor=none;fillColor=#F2CC8F;strokeColor=#E07A5F;fontColor=#393C56;" vertex="1" parent="1">
          <mxGeometry x="148" y="470" width="120" height="60" as="geometry" />
        </mxCell>
        <mxCell id="c3Qgh0YCJOzbZ4B7h1RX-10" style="edgeStyle=orthogonalEdgeStyle;rounded=0;orthogonalLoop=1;jettySize=auto;html=1;labelBackgroundColor=none;strokeColor=#E07A5F;fontColor=default;" edge="1" parent="1" source="c3Qgh0YCJOzbZ4B7h1RX-11">
          <mxGeometry relative="1" as="geometry">
            <mxPoint x="474" y="500" as="targetPoint" />
          </mxGeometry>
        </mxCell>
        <mxCell id="c3Qgh0YCJOzbZ4B7h1RX-11" value="Pull continous variables from part&lt;br&gt;Pull esoData &lt;br&gt;from part" style="shape=parallelogram;perimeter=parallelogramPerimeter;whiteSpace=wrap;html=1;fixedSize=1;labelBackgroundColor=none;fillColor=#F2CC8F;strokeColor=#E07A5F;fontColor=#393C56;" vertex="1" parent="1">
          <mxGeometry x="304" y="470" width="126" height="60" as="geometry" />
        </mxCell>
        <mxCell id="c3Qgh0YCJOzbZ4B7h1RX-13" value="Clean part" style="shape=parallelogram;perimeter=parallelogramPerimeter;whiteSpace=wrap;html=1;fixedSize=1;labelBackgroundColor=none;fillColor=#F2CC8F;strokeColor=#E07A5F;fontColor=#393C56;" vertex="1" parent="1">
          <mxGeometry x="464" y="470" width="120" height="60" as="geometry" />
        </mxCell>
        <mxCell id="c3Qgh0YCJOzbZ4B7h1RX-17" style="edgeStyle=orthogonalEdgeStyle;rounded=0;orthogonalLoop=1;jettySize=auto;html=1;labelBackgroundColor=none;strokeColor=#E07A5F;fontColor=default;" edge="1" parent="1">
          <mxGeometry relative="1" as="geometry">
            <mxPoint x="634" y="500" as="targetPoint" />
            <mxPoint x="574" y="500" as="sourcePoint" />
          </mxGeometry>
        </mxCell>
        <mxCell id="c3Qgh0YCJOzbZ4B7h1RX-24" style="edgeStyle=orthogonalEdgeStyle;rounded=0;orthogonalLoop=1;jettySize=auto;html=1;entryX=1;entryY=0.5;entryDx=0;entryDy=0;entryPerimeter=0;labelBackgroundColor=none;strokeColor=#E07A5F;fontColor=default;" edge="1" parent="1" source="c3Qgh0YCJOzbZ4B7h1RX-18" target="c3Qgh0YCJOzbZ4B7h1RX-4">
          <mxGeometry relative="1" as="geometry">
            <Array as="points">
              <mxPoint x="690" y="380" />
            </Array>
          </mxGeometry>
        </mxCell>
        <mxCell id="c3Qgh0YCJOzbZ4B7h1RX-25" value="Next part" style="edgeLabel;html=1;align=center;verticalAlign=middle;resizable=0;points=[];labelBackgroundColor=none;fontColor=#393C56;" vertex="1" connectable="0" parent="c3Qgh0YCJOzbZ4B7h1RX-24">
          <mxGeometry x="0.3861" y="-3" relative="1" as="geometry">
            <mxPoint as="offset" />
          </mxGeometry>
        </mxCell>
        <mxCell id="c3Qgh0YCJOzbZ4B7h1RX-18" value="Write continous variables, esoData and part to .csv" style="shape=parallelogram;perimeter=parallelogramPerimeter;whiteSpace=wrap;html=1;fixedSize=1;labelBackgroundColor=none;fillColor=#F2CC8F;strokeColor=#E07A5F;fontColor=#393C56;" vertex="1" parent="1">
          <mxGeometry x="624" y="470" width="120" height="60" as="geometry" />
        </mxCell>
        <mxCell id="c3Qgh0YCJOzbZ4B7h1RX-27" value="End" style="rounded=1;whiteSpace=wrap;html=1;labelBackgroundColor=none;fillColor=#F2CC8F;strokeColor=#E07A5F;fontColor=#393C56;" vertex="1" parent="1">
          <mxGeometry x="160" y="350" width="120" height="60" as="geometry" />
        </mxCell>
      </root>
    </mxGraphModel>
  </diagram>
</mxfile>
